<svg width="33" height="33" viewBox="0 0 33 33" fill="none" xmlns="http://www.w3.org/2000/svg">
<path d="M29.2923 21.8673C30.4798 18.9674 28.55 18.6705 26.5409 17.1723C24.5317 15.674 27.8044 15.0319 28.4741 13.4922C29.1438 11.9525 27.9528 10.8685 26.4684 10.0504C24.9805 9.2322 22.8194 6.04927 22.8194 6.04927L22.7227 6.00439C23.8447 8.25523 23.7964 10.8271 23.7791 11.2103C24.1381 11.231 24.8078 11.3795 24.8907 12.2287C25.0012 13.3921 24.6111 14.2862 23.8861 14.6729C23.8861 14.6729 23.748 14.735 23.4546 14.7937C22.5536 18.4668 19.8712 21.1354 16.6986 21.1354C13.5261 21.1354 10.8402 18.4668 9.94267 14.7868V14.811C9.58709 14.7488 9.43175 14.6729 9.43175 14.6729C8.70678 14.2862 8.31668 13.3921 8.42716 12.2287C8.51346 11.3104 9.29366 11.2103 9.61816 11.2069C9.61126 10.9928 9.594 10.1263 9.7597 9.02162C9.2108 9.29089 7.56411 10.1816 7.59517 11.2069C7.6366 12.4393 7.98873 14.1309 6.40417 14.59C4.81961 15.0492 4.76437 18.0008 5.43065 19.499C6.09692 20.9973 6.54571 21.9398 4.45367 22.8546C2.36164 23.7694 4.68842 25.5093 4.46403 28.8511C4.23964 32.1928 7.28793 30.7118 13.3569 29.5967C19.4259 28.4817 23.786 29.9696 27.0587 29.5967C30.3279 29.2239 29.9585 28.1882 28.7675 26.6486C27.5765 25.1089 28.0978 24.7671 29.2888 21.8673H29.2923Z" fill="#441D39"/>
<path d="M17.7097 3.66046L22.7257 6.00451C21.7833 4.11615 20.0157 2.45219 16.7016 2.49707C11.5993 2.42457 10.1597 6.40496 9.7627 9.02173C9.87317 8.96649 9.94221 8.93542 9.94221 8.93542L17.7097 3.65701V3.66046Z" fill="#C1735C"/>
<path d="M29.9616 28.1888C27.1032 27.2256 19.9606 23.5283 19.9606 23.5283H12.8594C12.8594 23.5283 5.7203 27.2256 2.85842 28.1888C0 29.152 0 34.0334 0 34.0334H32.8235C32.8235 34.0334 32.8235 29.152 29.9651 28.1888H29.9616Z" fill="#4598C4"/>
<path d="M19.5227 20.1516H13.2639L12.7979 24.0664L16.4779 31.9547L20.006 23.8593L19.5227 20.1516Z" fill="#C1735C"/>
<path d="M13.2738 19.9998L12.9941 22.4094C12.9941 22.4094 17.8445 22.8547 19.5533 20.7282V20.3657C18.6799 20.8594 17.7168 21.1355 16.6984 21.1355C15.4556 21.1355 14.2887 20.7213 13.2738 19.9998Z" fill="#A5503C"/>
<path d="M24.8942 12.229C24.8148 11.3798 24.1416 11.2313 23.7826 11.2106C23.7964 10.8274 23.8481 8.25552 22.7262 6.00469L17.7101 3.66064L9.94269 8.93906C9.94269 8.93906 9.87364 8.97013 9.76317 9.02536C9.59401 10.1301 9.61128 10.9966 9.62163 11.2106C9.29713 11.2106 8.51693 11.3142 8.43062 12.2325C8.32015 13.3959 8.71025 14.29 9.43521 14.6766C9.43521 14.6766 9.59056 14.7526 9.94614 14.8147V14.7905C10.4916 17.0276 11.6999 18.8883 13.2775 20.0034C14.2925 20.7249 15.4593 21.1391 16.7021 21.1391C17.717 21.1391 18.6837 20.863 19.5571 20.3693C21.4109 19.3233 22.847 17.2934 23.4581 14.7974C23.7549 14.7388 23.8896 14.6766 23.8896 14.6766C24.6145 14.29 25.0046 13.3959 24.8942 12.2325V12.229Z" fill="#C1735C"/>
<path d="M11.8276 10.1129C13.0117 10.03 14.0197 10.3062 14.5307 10.4616C14.686 10.5099 14.8483 10.4477 14.9139 10.3269C14.9829 10.1854 14.8966 10.0231 14.724 9.96789C14.144 9.78838 13.0946 9.50184 11.9312 9.77457C11.7516 9.81599 11.4306 9.95063 11.5065 10.0991C11.5514 10.1509 11.6722 10.1267 11.8276 10.1163V10.1129Z" fill="#441D39"/>
<path d="M21.642 10.1714C20.4614 10.0402 19.4464 10.2784 18.9286 10.4165C18.7732 10.4579 18.611 10.3923 18.5523 10.2646C18.4867 10.1196 18.5799 9.95735 18.756 9.91247C19.3428 9.75367 20.4027 9.50857 21.5557 9.82617C21.7318 9.8745 22.0494 10.0229 21.9665 10.1679C21.9182 10.2197 21.8008 10.1886 21.6455 10.1679L21.642 10.1714Z" fill="#441D39"/>
<path d="M20.0476 12.8051C20.2783 12.8051 20.4653 12.4806 20.4653 12.0802C20.4653 11.6798 20.2783 11.3552 20.0476 11.3552C19.8169 11.3552 19.6299 11.6798 19.6299 12.0802C19.6299 12.4806 19.8169 12.8051 20.0476 12.8051Z" fill="#441D39"/>
<path d="M13.781 12.6567C14.0117 12.6567 14.1987 12.3321 14.1987 11.9317C14.1987 11.5314 14.0117 11.2068 13.781 11.2068C13.5503 11.2068 13.3633 11.5314 13.3633 11.9317C13.3633 12.3321 13.5503 12.6567 13.781 12.6567Z" fill="#441D39"/>
<path d="M17.1916 15.3394H16.5323C16.2388 15.3394 15.9799 15.2255 15.8418 15.0356C15.7417 14.9009 15.7141 14.7421 15.7624 14.5868C15.9143 14.0931 16.0421 13.6202 16.0421 13.6167C16.0662 13.5235 16.1594 13.4717 16.2526 13.4959C16.3459 13.5201 16.4011 13.6167 16.3735 13.7065C16.3735 13.7065 16.2457 14.1863 16.0904 14.6869C16.0766 14.7387 16.0835 14.7836 16.118 14.8319C16.1905 14.932 16.3528 14.9942 16.5323 14.9942H17.1916C17.2883 14.9942 17.3643 15.0701 17.3643 15.1668C17.3643 15.2634 17.2883 15.3394 17.1916 15.3394Z" fill="#A5503C"/>
<path d="M16.5602 17.5107C15.7559 17.5107 15.1448 17.4002 15.1 17.3899C15.0067 17.3726 14.9446 17.2828 14.9619 17.1896C14.9791 17.0964 15.0689 17.0343 15.1621 17.0515C15.1794 17.0515 17.1057 17.4071 18.6108 16.8444C18.7006 16.8099 18.8007 16.8548 18.8318 16.9445C18.8663 17.0343 18.818 17.1344 18.7317 17.1655C18.0102 17.4347 17.2196 17.5107 16.5568 17.5107H16.5602Z" fill="#A5503C"/>
<path d="M20.3923 13.941C21.0577 13.941 21.5971 13.8174 21.5971 13.6648C21.5971 13.5123 21.0577 13.3887 20.3923 13.3887C19.7269 13.3887 19.1875 13.5123 19.1875 13.6648C19.1875 13.8174 19.7269 13.941 20.3923 13.941Z" fill="#AF5D4E"/>
<path d="M13.364 13.941C14.0294 13.941 14.5688 13.8174 14.5688 13.6648C14.5688 13.5123 14.0294 13.3887 13.364 13.3887C12.6986 13.3887 12.1592 13.5123 12.1592 13.6648C12.1592 13.8174 12.6986 13.941 13.364 13.941Z" fill="#AF5D4E"/>
<path d="M9.36952 9.24949L9.39023 9.41174L8.40981 10.4301L7.65723 12.6568C7.65723 12.6568 8.53754 15.5118 9.79069 17.2828C11.0404 19.0572 10.4708 16.3783 9.94258 14.7834C9.4144 13.1885 10.4017 13.1677 10.633 12.0803C10.778 11.3933 10.5226 10.7616 10.3154 10.3922C10.1325 9.76042 10.2947 9.00093 11.1612 8.76618C13.1911 8.21038 11.862 4.84448 11.862 4.84448C10.6952 5.59361 9.68021 8.61774 9.37297 9.24604L9.36952 9.24949Z" fill="#441D39"/>
<path d="M24.911 10.4302L24.1929 10.4854C23.8995 8.96992 23.2539 5.98032 22.6705 5.66962C21.8834 5.2519 20.9893 5.93199 20.9893 5.93199C20.9893 5.93199 21.438 8.3796 22.4219 8.93195C23.0053 9.25991 23.0019 9.99868 23.0157 10.5441C22.6774 12.3082 21.8005 14.2691 23.7786 16.04C25.9363 17.9698 26.4023 12.8053 26.4023 12.8053L24.911 10.4302Z" fill="#441D39"/>
<path d="M23.8339 3.04982C22.7189 1.19599 18.4312 0.277706 14.8616 1.00612L14.6234 0.201757C14.5786 0.0533123 14.4232 -0.0329924 14.2713 0.0118862C14.1229 0.0567648 14.0366 0.212114 14.0815 0.36401L14.3093 1.14076C11.551 1.86227 8.67876 3.91632 7.4187 6.49857C6.12068 9.15676 9.39336 9.21545 9.39336 9.21545C12.1793 5.01412 22.819 6.04978 22.819 6.04978C23.4369 5.9186 24.98 4.96234 23.8305 3.05327L23.8339 3.04982Z" fill="#FF7C59"/>
<path d="M11.2162 26.4486C11.1506 26.4486 11.0884 26.4141 11.0608 26.352C11.0194 26.2657 11.0574 26.1621 11.1402 26.1207L12.4417 25.4958C12.528 25.4544 12.6316 25.4924 12.673 25.5787C12.7144 25.665 12.6765 25.7685 12.5936 25.81L11.2921 26.4348C11.268 26.4452 11.2438 26.4521 11.2162 26.4521V26.4486Z" fill="#2A5E70"/>
<path d="M11.8099 28.5024C11.7443 28.5024 11.6822 28.4679 11.6546 28.4057C11.6132 28.3194 11.6511 28.2159 11.734 28.1744L13.0355 27.5496C13.1218 27.5082 13.2253 27.5461 13.2668 27.629C13.3082 27.7119 13.2702 27.8189 13.1874 27.8603L11.8859 28.4851C11.8617 28.4955 11.8375 28.5024 11.8099 28.5024Z" fill="#2A5E70"/>
<path d="M12.5658 30.9296C12.5002 30.9296 12.4381 30.8951 12.4104 30.833C12.369 30.7467 12.407 30.6431 12.4898 30.6017L13.7913 29.9768C13.8776 29.9354 13.9812 29.9734 14.0226 30.0562C14.064 30.1425 14.0261 30.2461 13.9432 30.2875L12.6417 30.9124C12.6176 30.9227 12.5934 30.9296 12.5658 30.9296Z" fill="#2A5E70"/>
<path d="M21.3727 26.4487C21.3486 26.4487 21.321 26.4418 21.2968 26.4314L19.9953 25.8065C19.909 25.7651 19.8745 25.6616 19.9159 25.5752C19.9573 25.4889 20.0609 25.451 20.1472 25.4924L21.4487 26.1172C21.535 26.1587 21.5695 26.2622 21.5281 26.3485C21.497 26.4107 21.4383 26.4452 21.3727 26.4452V26.4487Z" fill="#2A5E70"/>
<path d="M20.779 28.5023C20.7548 28.5023 20.7272 28.4954 20.703 28.485L19.4016 27.8602C19.3153 27.8187 19.2807 27.7152 19.3222 27.6289C19.3636 27.5426 19.4672 27.508 19.5535 27.5495L20.8549 28.1743C20.9412 28.2157 20.9758 28.3193 20.9343 28.4056C20.9033 28.4677 20.8446 28.5023 20.779 28.5023Z" fill="#2A5E70"/>
<path d="M20.0231 30.9295C19.999 30.9295 19.9713 30.9226 19.9472 30.9122L18.6457 30.2874C18.5594 30.246 18.5249 30.1424 18.5663 30.0561C18.6077 29.9698 18.7113 29.9353 18.7976 29.9767L20.0991 30.6015C20.1854 30.643 20.2199 30.7465 20.1785 30.8328C20.1474 30.895 20.0887 30.9295 20.0231 30.9295Z" fill="#2A5E70"/>
</svg>
