<svg width="33" height="31" viewBox="0 0 33 31" fill="none" xmlns="http://www.w3.org/2000/svg">
<path d="M8.11936 9.26573C7.57391 14.8548 6.71776 16.8985 6.25517 17.6235C6.13779 17.803 6.25171 18.0447 6.4623 18.0723L15.9179 19.3116L16.4909 0.0414489C16.4909 0.0414489 9.12395 -1.07361 8.11936 9.26573Z" fill="#441D39"/>
<path d="M27.0542 17.6235C26.5882 16.8985 25.732 14.8548 25.19 9.26571C24.1855 -1.07363 16.6113 0.034529 16.6113 0.034529L17.395 19.3082L26.8506 18.0688C27.0646 18.0412 27.1751 17.803 27.0577 17.62L27.0542 17.6235Z" fill="#441D39"/>
<path d="M13.2629 18.0789L12.7969 21.9937L20.0051 21.7865L19.5218 18.0789H13.2629Z" fill="#FFC7A4"/>
<path d="M12.9932 20.3366C12.9932 20.3366 17.8435 20.7819 19.5523 18.6553V16.2112L13.404 16.8015L12.9932 20.3366Z" fill="#F2B594"/>
<path d="M24.8936 10.1559C24.8108 9.27907 24.0962 9.14789 23.7475 9.13753C23.4057 4.5461 20.171 0.0444336 16.4944 0.0444336C12.8178 0.0444336 10.0009 4.5461 9.65908 9.13753C9.35874 9.13408 8.52331 9.20657 8.43355 10.1594C8.32308 11.3228 8.71318 12.2169 9.43814 12.6035C9.43814 12.6035 9.59349 12.6795 9.94907 12.7416V12.7175C10.8466 16.3975 13.5325 19.0661 16.705 19.0661C19.8776 19.0661 22.56 16.401 23.461 12.7244C23.7579 12.6657 23.8925 12.6035 23.8925 12.6035C24.6175 12.2169 25.0076 11.3228 24.8971 10.1594L24.8936 10.1559Z" fill="#FFC7A4"/>
<path d="M11.8471 8.19214C13.0139 7.98155 14.0461 8.14726 14.5709 8.24737C14.7297 8.27844 14.8885 8.20249 14.9368 8.07131C14.992 7.92286 14.8885 7.77097 14.709 7.73645C14.1117 7.62252 13.0381 7.44991 11.9127 7.84346C11.7401 7.9056 11.4328 8.07476 11.526 8.2094C11.5778 8.25773 11.6917 8.2163 11.8471 8.18868V8.19214Z" fill="#441D39"/>
<path d="M21.6202 8.19214C20.4534 7.98155 19.4212 8.14726 18.8964 8.24737C18.7376 8.27844 18.5788 8.20249 18.5305 8.07131C18.4753 7.92286 18.5788 7.77097 18.7583 7.73645C19.3556 7.62252 20.4292 7.44991 21.5546 7.84346C21.7272 7.9056 22.0345 8.07476 21.9413 8.2094C21.8895 8.25773 21.7756 8.2163 21.6202 8.18868V8.19214Z" fill="#441D39"/>
<path d="M20.0466 10.584C20.2773 10.584 20.4643 10.2594 20.4643 9.85899C20.4643 9.45861 20.2773 9.13403 20.0466 9.13403C19.8159 9.13403 19.6289 9.45861 19.6289 9.85899C19.6289 10.2594 19.8159 10.584 20.0466 10.584Z" fill="#441D39"/>
<path d="M13.781 10.584C14.0117 10.584 14.1987 10.2594 14.1987 9.85899C14.1987 9.45861 14.0117 9.13403 13.781 9.13403C13.5503 9.13403 13.3633 9.45861 13.3633 9.85899C13.3633 10.2594 13.5503 10.584 13.781 10.584Z" fill="#441D39"/>
<path d="M17.1913 13.2664H16.532C16.1833 13.2664 15.9002 13.1594 15.7897 12.9833C15.7276 12.8867 15.7207 12.7762 15.769 12.6726C15.9209 12.3516 16.0452 12.0409 16.0452 12.0409C16.0797 11.9511 16.1833 11.9097 16.2696 11.9477C16.3593 11.9822 16.4008 12.0858 16.3628 12.1721C16.3628 12.1721 16.2351 12.4897 16.0797 12.8211C16.097 12.8314 16.2385 12.9212 16.532 12.9212H17.1913C17.288 12.9212 17.3639 12.9971 17.3639 13.0938C17.3639 13.1905 17.288 13.2664 17.1913 13.2664Z" fill="#EDA07E"/>
<path d="M16.5602 15.4379C15.7559 15.4379 15.1448 15.3275 15.1 15.3171C15.0067 15.2998 14.9446 15.2101 14.9619 15.1169C14.9791 15.0237 15.0723 14.9615 15.1621 14.9788C15.1828 14.9788 17.1057 15.3344 18.6108 14.7716C18.7006 14.7371 18.8007 14.782 18.8318 14.8718C18.8663 14.9615 18.8214 15.0616 18.7317 15.0927C18.0102 15.362 17.2196 15.4379 16.5568 15.4379H16.5602Z" fill="#EDA07E"/>
<path d="M20.3913 11.8683C21.0567 11.8683 21.5962 11.7446 21.5962 11.5921C21.5962 11.4396 21.0567 11.3159 20.3913 11.3159C19.7259 11.3159 19.1865 11.4396 19.1865 11.5921C19.1865 11.7446 19.7259 11.8683 20.3913 11.8683Z" fill="#EAA281"/>
<path d="M13.363 11.8683C14.0284 11.8683 14.5678 11.7446 14.5678 11.5921C14.5678 11.4396 14.0284 11.3159 13.363 11.3159C12.6976 11.3159 12.1582 11.4396 12.1582 11.5921C12.1582 11.7446 12.6976 11.8683 13.363 11.8683Z" fill="#EAA281"/>
<path d="M9.93799 6.93138L9.59277 6.91067C9.93109 1.1593 15.2924 0.341133 15.3476 0.334229L15.3959 0.675996C15.3959 0.675996 14.091 0.869319 12.7792 1.73582C11.0289 2.89231 10.0761 4.63912 9.93799 6.93138Z" fill="#30132B"/>
<path d="M16.6113 0.0375977V3.03066C16.6113 3.03066 21.7033 2.28153 23.7815 9.1376C23.7815 9.1376 25.1935 -0.0866815 16.6113 0.0410499V0.0375977Z" fill="#441D39"/>
<path d="M16.4908 0.040779V3.03384C16.4908 3.03384 11.7026 2.40899 9.62436 9.26506C9.62436 9.26506 7.90861 -0.0835002 16.4908 0.040779Z" fill="#441D39"/>
<path d="M29.9616 26.1159C27.6245 25.3288 22.4324 22.7189 20.6096 21.7868C20.6096 21.7765 20.6096 21.7661 20.6027 21.7558L20.2023 20.4681C20.147 20.2886 19.9813 20.1643 19.7915 20.1643H12.8698C12.6627 20.1643 12.4866 20.3093 12.4486 20.513L11.9446 21.7385C11.9308 21.8041 11.9343 21.8662 11.9481 21.9249C9.93198 22.9502 5.092 25.3668 2.85842 26.1194C0 27.0825 0 31.9639 0 31.9639H32.8235C32.8235 31.9639 32.8235 27.0825 29.9651 26.1194L29.9616 26.1159Z" fill="#4598C4"/>
<path d="M9.73856 14.0881C9.63845 14.0881 9.59357 14.0881 9.57631 13.9017H9.5694C9.5694 13.9017 9.5694 13.8603 9.5694 13.8119C9.5625 13.6531 9.5625 13.408 9.5625 13.0179C9.5625 12.6278 9.5625 12.3827 9.5694 12.2239C9.5694 12.1756 9.5694 12.1445 9.5694 12.1342H9.57631C9.59702 11.9478 9.63845 11.9478 9.73856 11.9478C9.83868 11.9478 9.88355 11.9478 9.90082 12.1342H9.90772C9.90772 12.1342 9.90772 12.1756 9.90772 12.2239C9.91462 12.3827 9.91462 12.6278 9.91462 13.0179C9.91462 13.408 9.91462 13.6531 9.90772 13.8119C9.90772 13.8603 9.90772 13.8913 9.90772 13.9017H9.90082C9.8801 14.0881 9.83868 14.0881 9.73856 14.0881Z" fill="#FFA33A"/>
<path d="M23.8987 14.0881C23.7986 14.0881 23.7537 14.0881 23.7365 13.9017H23.7296C23.7296 13.9017 23.7296 13.8603 23.7296 13.8119C23.7227 13.6531 23.7227 13.408 23.7227 13.0179C23.7227 12.6278 23.7227 12.3827 23.7296 12.2239C23.7296 12.1756 23.7296 12.1445 23.7296 12.1342H23.7365C23.7572 11.9478 23.7986 11.9478 23.8987 11.9478C23.9988 11.9478 24.0437 11.9478 24.061 12.1342H24.0679C24.0679 12.1342 24.0679 12.1756 24.0679 12.2239C24.0748 12.3827 24.0748 12.6278 24.0748 13.0179C24.0748 13.408 24.0748 13.6531 24.0679 13.8119C24.0679 13.8603 24.0679 13.8913 24.0679 13.9017H24.061C24.0403 14.0881 23.9988 14.0881 23.8987 14.0881Z" fill="#FFA33A"/>
<path d="M13.3389 22.7776C13.3389 22.7776 13.3182 22.7776 13.3113 22.7776C13.2181 22.7603 13.1525 22.674 13.1698 22.5774L13.4321 21.0446C13.4494 20.9514 13.5391 20.8892 13.6324 20.903C13.7256 20.9203 13.7912 21.0066 13.7739 21.1033L13.5115 22.636C13.4977 22.7189 13.4252 22.781 13.3424 22.781L13.3389 22.7776Z" fill="#2579AD"/>
<path d="M19.1872 22.7771C19.1044 22.7771 19.0319 22.7184 19.0181 22.6321L18.7557 21.0994C18.7384 21.0062 18.804 20.9164 18.8972 20.8991C18.9904 20.8853 19.0802 20.9475 19.0975 21.0407L19.3598 22.5735C19.3771 22.6667 19.3115 22.7564 19.2183 22.7737C19.2079 22.7737 19.1976 22.7737 19.1907 22.7737L19.1872 22.7771Z" fill="#2579AD"/>
<path d="M16.4148 22.9226C16.3181 22.9226 16.2422 22.8467 16.2422 22.75V21.1965C16.2422 21.0999 16.3181 21.0239 16.4148 21.0239C16.5115 21.0239 16.5874 21.0999 16.5874 21.1965V22.75C16.5874 22.8467 16.5115 22.9226 16.4148 22.9226Z" fill="#2579AD"/>
</svg>
