<svg width="33" height="31" viewBox="0 0 33 31" fill="none" xmlns="http://www.w3.org/2000/svg">
<path d="M16.2701 0.190501C16.4876 0.242284 16.7051 0.266449 16.926 0.245736C18.0169 0.152526 21.728 0.1111 23.3299 3.64615C25.2148 7.81641 26.2401 8.94528 24.9248 13.7922C23.6095 18.6391 24.659 18.4561 25.339 20.9244L25.3598 20.9969C25.7257 22.326 24.6486 23.6102 23.2712 23.4963L20.6371 23.2719C20.4473 23.2547 20.2539 23.2685 20.0675 23.3064C18.5693 23.6171 11.4129 25.036 8.66836 24.3179C7.72936 24.0728 6.925 23.7759 6.25527 23.479C5.10914 22.9716 4.75011 21.5424 5.46127 20.5102C5.76161 20.0786 5.99636 19.6057 6.04469 19.1534C6.18968 17.7587 5.21961 16.5021 5.60281 14.1374C6.24146 10.1777 7.45319 10.5436 7.66722 8.07187C7.7915 6.65647 9.92151 -1.32502 16.2667 0.190501H16.2701Z" fill="#EB3F3A"/>
<path d="M16.2701 0.190501C16.4876 0.242284 16.7051 0.266449 16.926 0.245736C18.0169 0.152526 21.728 0.1111 23.3299 3.64615C25.2148 7.81641 26.2401 8.94528 24.9248 13.7922C23.6095 18.6391 24.659 18.4561 25.339 20.9244L25.3598 20.9969C25.7257 22.326 24.6486 23.6102 23.2712 23.4963L20.6371 23.2719C20.4473 23.2547 20.2539 23.2685 20.0675 23.3064C18.5693 23.6171 11.4129 25.036 8.66836 24.3179C7.72936 24.0728 6.925 23.7759 6.25527 23.479C5.10914 22.9716 4.75011 21.5424 5.46127 20.5102C5.76161 20.0786 5.99636 19.6057 6.04469 19.1534C6.18968 17.7587 5.21961 16.5021 5.60281 14.1374C6.24146 10.1777 7.45319 10.5436 7.66722 8.07187C7.7915 6.65647 9.92151 -1.32502 16.2667 0.190501H16.2701Z" fill="#EB3F3A"/>
<path d="M29.9616 26.1583C27.1032 25.1951 19.9606 21.4978 19.9606 21.4978L19.5187 18.1216H13.2634L12.8594 21.4978C12.8594 21.4978 5.7203 25.1951 2.85842 26.1583C-0.00345228 27.1215 1.99979e-08 32.0029 1.99979e-08 32.0029H32.8235C32.8235 32.0029 32.8235 27.1215 29.9651 26.1583H29.9616Z" fill="#FFB69F"/>
<path d="M16.4117 22.5649C18.3736 22.5649 19.964 22.0873 19.964 21.4981C19.964 20.909 18.3736 20.4314 16.4117 20.4314C14.4498 20.4314 12.8594 20.909 12.8594 21.4981C12.8594 22.0873 14.4498 22.5649 16.4117 22.5649Z" fill="#FFB69F"/>
<path d="M12.9932 20.379C12.9932 20.379 17.8435 20.8244 19.5523 18.6978V16.2537L13.404 16.844L12.9932 20.379Z" fill="#FF9988"/>
<path d="M16.7016 19.1021C20.612 19.1021 23.782 15.0495 23.782 10.0504C23.782 5.05135 20.612 0.998779 16.7016 0.998779C12.7911 0.998779 9.62109 5.05135 9.62109 10.0504C9.62109 15.0495 12.7911 19.1021 16.7016 19.1021Z" fill="#FFB69F"/>
<path d="M23.557 9.18363C23.557 9.18363 24.7791 9.03518 24.8895 10.1986C25 11.362 24.6099 12.2561 23.8849 12.6427C23.8849 12.6427 23.7296 12.7187 23.374 12.7808L23.557 9.18708V9.18363Z" fill="#FFB69F"/>
<path d="M9.7622 9.18363C9.7622 9.18363 8.54012 9.03518 8.42965 10.1986C8.31918 11.362 8.70927 12.2561 9.43424 12.6427C9.43424 12.6427 9.58959 12.7187 9.94516 12.7808L9.7622 9.18708V9.18363Z" fill="#FFB69F"/>
<path d="M9.6206 9.26686C9.6206 9.26686 9.10622 0.933252 16.7011 1.03337V9.75362L9.6206 9.26686Z" fill="#FFB69F"/>
<path d="M23.7777 9.26686C23.7777 9.26686 24.2921 0.933252 16.6973 1.03337V9.75362L23.7777 9.26686Z" fill="#FFB69F"/>
<path d="M11.8471 8.23462C13.0139 8.02403 14.0461 8.18974 14.5709 8.28985C14.7297 8.32092 14.8885 8.24497 14.9368 8.11379C14.992 7.96534 14.8885 7.81345 14.709 7.77893C14.1117 7.665 13.0381 7.49239 11.9127 7.88594C11.7401 7.94808 11.4328 8.11724 11.526 8.25188C11.5778 8.30021 11.6917 8.25878 11.8471 8.23116V8.23462Z" fill="#EB3F3A"/>
<path d="M21.628 8.23822C20.4612 8.02763 19.429 8.19334 18.9042 8.29345C18.7454 8.32452 18.5866 8.24512 18.5383 8.11394C18.4831 7.96549 18.5866 7.81014 18.7662 7.77562C19.3634 7.65825 20.437 7.48564 21.5624 7.88609C21.7351 7.94823 22.0423 8.11739 21.9491 8.25548C21.8973 8.30381 21.7834 8.26238 21.628 8.23476V8.23822Z" fill="#EB3F3A"/>
<path d="M20.0466 10.7751C20.2773 10.7751 20.4643 10.4505 20.4643 10.0502C20.4643 9.64977 20.2773 9.3252 20.0466 9.3252C19.8159 9.3252 19.6289 9.64977 19.6289 10.0502C19.6289 10.4505 19.8159 10.7751 20.0466 10.7751Z" fill="#441D39"/>
<path d="M13.781 10.6267C14.0117 10.6267 14.1987 10.3021 14.1987 9.90172C14.1987 9.50133 14.0117 9.17676 13.781 9.17676C13.5503 9.17676 13.3633 9.50133 13.3633 9.90172C13.3633 10.3021 13.5503 10.6267 13.781 10.6267Z" fill="#441D39"/>
<path d="M17.1877 13.3091H16.5284C16.2349 13.3091 15.976 13.1952 15.8379 13.0053C15.7378 12.8707 15.7102 12.7119 15.7585 12.5565C15.9104 12.0594 16.0382 11.5865 16.0382 11.5865C16.0623 11.4932 16.159 11.4415 16.2487 11.4656C16.342 11.4898 16.3972 11.5865 16.3696 11.6762C16.3696 11.6762 16.2418 12.1561 16.0865 12.6566C16.0727 12.7084 16.0796 12.7533 16.1141 12.8016C16.1866 12.8983 16.3489 12.9639 16.5284 12.9639H17.1877C17.2844 12.9639 17.3604 13.0398 17.3604 13.1365C17.3604 13.2332 17.2844 13.3091 17.1877 13.3091Z" fill="#FF9988"/>
<path d="M15.6897 15.5564C15.3686 15.5564 15.158 15.5391 15.1339 15.5356C15.0407 15.5287 14.9682 15.4424 14.9785 15.3492C14.9854 15.2526 15.0717 15.187 15.1649 15.1904C15.1857 15.1904 17.1327 15.3492 18.5757 14.6381C18.662 14.5967 18.7656 14.6312 18.807 14.7175C18.8484 14.8038 18.8139 14.9074 18.7276 14.9488C17.6712 15.4701 16.4043 15.5529 15.6931 15.5529L15.6897 15.5564Z" fill="#FF9988"/>
<path d="M20.3913 11.911C21.0567 11.911 21.5962 11.7873 21.5962 11.6348C21.5962 11.4823 21.0567 11.3586 20.3913 11.3586C19.7259 11.3586 19.1865 11.4823 19.1865 11.6348C19.1865 11.7873 19.7259 11.911 20.3913 11.911Z" fill="#FF9988"/>
<path d="M13.363 11.911C14.0284 11.911 14.5678 11.7873 14.5678 11.6348C14.5678 11.4823 14.0284 11.3586 13.363 11.3586C12.6976 11.3586 12.1582 11.4823 12.1582 11.6348C12.1582 11.7873 12.6976 11.911 13.363 11.911Z" fill="#FF9988"/>
<path d="M19.9631 21.4983C19.9631 21.4983 19.863 20.3383 19.8009 20.2658C18.2439 20.7595 15.3061 20.7042 13.0173 20.1726C13.0173 20.1726 12.8205 20.9459 9.94483 22.9723L5.70553 24.9919L5.31543 32.0033H27.1126L26.3877 24.6881L19.9666 21.4983H19.9631Z" fill="#1C2642"/>
<path d="M19.0592 0.73309C19.0489 0.715829 19.0419 0.695116 19.0316 0.681307C18.8072 0.308469 15.3515 0.156572 15.065 0.246329C14.8337 0.318826 11.8545 2.03457 10.7221 2.69049C10.4425 2.85274 10.2285 3.10475 10.118 3.40855L7.81885 9.64322C7.76361 9.79166 7.73599 9.95046 7.73254 10.1127L7.64278 22.6856C7.63933 23.3968 7.25614 23.8663 7.96384 23.9388L11.0777 24.2944C11.7578 24.3634 12.3827 23.9284 12.5553 23.2691L12.7969 21.8985C12.8798 21.5809 12.7831 21.3324 12.8211 20.9457C12.9523 19.6546 10.8464 16.6754 11.1468 15.7709C11.5196 14.6455 12.0305 13.4406 12.1203 11.9148C12.21 10.3889 11.2227 7.69618 12.614 4.42349C13.7325 1.79292 16.3285 2.31765 17.302 2.6249C17.3745 2.64906 17.4505 2.66287 17.5264 2.67323C17.5264 2.67323 23.119 4.40623 23.264 10.6271C23.264 10.6271 23.4918 10.9792 23.6368 10.565C24.6345 7.68927 23.3399 1.35103 19.0558 0.736542L19.0592 0.73309Z" fill="#EB3F3A"/>
<path d="M23.7709 12.2598C23.9005 12.2598 24.0056 12.1547 24.0056 12.025C24.0056 11.8954 23.9005 11.7903 23.7709 11.7903C23.6412 11.7903 23.5361 11.8954 23.5361 12.025C23.5361 12.1547 23.6412 12.2598 23.7709 12.2598Z" fill="white"/>
</svg>
