<svg width="33" height="35" viewBox="0 0 33 35" fill="none" xmlns="http://www.w3.org/2000/svg">
<path d="M29.9616 29.8824C27.1032 28.9192 19.9606 25.2219 19.9606 25.2219H12.8594C12.8594 25.2219 5.7203 28.9192 2.85842 29.8824C0 30.8456 0 35.727 0 35.727H32.8235C32.8235 35.727 32.8235 30.8456 29.9651 29.8824H29.9616Z" fill="#424777"/>
<path d="M19.5215 21.8452L20.0049 25.5532L19.3418 25.5718L17.6914 26.6919L16.8975 34.5083L15.5859 26.7886L14.3242 25.7163L12.7969 25.7603L13.2627 21.8452H19.5215Z" fill="#C1735C"/>
<path d="M12.9932 24.1029C12.9932 24.1029 17.8435 24.5483 19.5523 22.4217V19.9775L13.404 20.5679L12.9932 24.1029Z" fill="#A5503C"/>
<path d="M12.9416 24.5383L10.6045 26.3645L13.7564 29.4405L15.586 26.7892L12.9416 24.5383Z" fill="#515882"/>
<path d="M17.6924 26.6924L19.8776 24.5693L22.0076 26.254L19.1872 29.3403L17.6924 26.6924Z" fill="#515882"/>
<path d="M14.9714 1.80205C14.5192 0.683536 12.3857 0 12.3857 0C12.9139 3.49708 14.9231 2.7445 14.9231 2.7445C14.9645 2.66165 14.9922 2.57879 15.0163 2.49939C16.5905 3.37625 17.9024 0.158801 17.9024 0.158801C15.7102 0.317602 15.1095 1.17375 14.9714 1.80205Z" fill="#FF7C59"/>
<path d="M16.7012 4.72266C20.3815 4.72266 23.4049 8.31234 23.748 12.9023C24.0962 12.9147 24.8064 13.0481 24.8896 13.9219C25.0001 15.085 24.6104 15.9794 23.8857 16.3662C23.8857 16.3662 23.7542 16.4288 23.458 16.4873C22.5563 20.1609 19.8722 22.8262 16.7012 22.8262C13.529 22.8261 10.8441 20.159 9.94336 16.4834L9.94531 16.5049C9.59365 16.4434 9.43795 16.3679 9.43457 16.3662C8.70961 15.9796 8.31922 15.0853 8.42969 13.9219C8.52013 12.9723 9.3514 12.8999 9.65332 12.9043C9.99575 8.31338 13.0203 4.72276 16.7012 4.72266Z" fill="#C1735C"/>
<path d="M16.7011 4.19066C9.10622 4.08364 9.6206 12.9592 9.6206 12.9592L16.7011 13.4771L23.7815 12.9592C23.7815 12.9592 24.2959 4.08364 16.7011 4.19066Z" fill="#C1735C"/>
<path d="M11.8471 11.9585C13.0139 11.7479 14.0461 11.9136 14.5709 12.0137C14.7297 12.0448 14.8885 11.9688 14.9368 11.8377C14.992 11.6892 14.8885 11.5373 14.709 11.5028C14.1117 11.3889 13.0381 11.2163 11.9127 11.6098C11.7401 11.672 11.4328 11.8411 11.526 11.9758C11.5778 12.0241 11.6917 11.9827 11.8471 11.955V11.9585Z" fill="#441D39"/>
<path d="M21.628 11.9621C20.4612 11.7515 19.429 11.9172 18.9042 12.0173C18.7454 12.0484 18.5866 11.969 18.5383 11.8378C18.4831 11.6894 18.5866 11.534 18.7662 11.4995C19.3634 11.3821 20.437 11.2095 21.5624 11.61C21.7351 11.6721 22.0423 11.8413 21.9491 11.9794C21.8973 12.0277 21.7834 11.9863 21.628 11.9586V11.9621Z" fill="#441D39"/>
<path d="M20.0466 14.4988C20.2773 14.4988 20.4643 14.1742 20.4643 13.7738C20.4643 13.3734 20.2773 13.0488 20.0466 13.0488C19.8159 13.0488 19.6289 13.3734 19.6289 13.7738C19.6289 14.1742 19.8159 14.4988 20.0466 14.4988Z" fill="#441D39"/>
<path d="M13.781 14.3506C14.0117 14.3506 14.1987 14.026 14.1987 13.6256C14.1987 13.2252 14.0117 12.9006 13.781 12.9006C13.5503 12.9006 13.3633 13.2252 13.3633 13.6256C13.3633 14.026 13.5503 14.3506 13.781 14.3506Z" fill="#441D39"/>
<path d="M17.1916 17.0329H16.5323C16.2388 17.0329 15.9799 16.919 15.8418 16.7326C15.7417 16.598 15.7141 16.4392 15.7624 16.2838C15.9143 15.7867 16.0421 15.3172 16.0421 15.3138C16.0662 15.2205 16.1594 15.1688 16.2526 15.1929C16.3459 15.2171 16.4011 15.3138 16.3735 15.4035C16.3735 15.4035 16.2457 15.8834 16.0904 16.3839C16.0766 16.4323 16.0835 16.4806 16.118 16.5289C16.1905 16.629 16.3528 16.6912 16.5323 16.6912H17.1916C17.2883 16.6912 17.3643 16.7671 17.3643 16.8638C17.3643 16.9605 17.2883 17.0364 17.1916 17.0364V17.0329Z" fill="#A5503C"/>
<path d="M15.6868 19.2837C15.3657 19.2837 15.1551 19.2664 15.131 19.2629C15.0343 19.256 14.9653 19.1697 14.9722 19.0765C14.9791 18.9833 15.0619 18.9108 15.1586 18.9177C15.1793 18.9177 17.1263 19.0765 18.5693 18.3654C18.6557 18.3239 18.7592 18.3585 18.8006 18.4448C18.8421 18.5311 18.8075 18.6346 18.7212 18.6761C17.6649 19.1974 16.3979 19.2802 15.6833 19.2802L15.6868 19.2837Z" fill="#A5503C"/>
<path d="M20.3913 15.6349C21.0567 15.6349 21.5962 15.5112 21.5962 15.3587C21.5962 15.2062 21.0567 15.0825 20.3913 15.0825C19.7259 15.0825 19.1865 15.2062 19.1865 15.3587C19.1865 15.5112 19.7259 15.6349 20.3913 15.6349Z" fill="#AF5D4E"/>
<path d="M13.363 15.6349C14.0284 15.6349 14.5678 15.5112 14.5678 15.3587C14.5678 15.2062 14.0284 15.0825 13.363 15.0825C12.6976 15.0825 12.1582 15.2062 12.1582 15.3587C12.1582 15.5112 12.6976 15.6349 13.363 15.6349Z" fill="#AF5D4E"/>
<path d="M21.3203 7.5153C21.3203 7.5153 23.4123 11.2886 23.7783 12.9594C23.7783 12.9594 24.9106 7.92956 22.242 5.20923L21.3203 7.51185V7.5153Z" fill="#FF7C59"/>
<path d="M9.62078 12.9599L10.3734 10.0876H9.45508L9.62078 12.9599Z" fill="#FF7C59"/>
<path d="M21.082 3.72142C21.082 3.72142 21.082 3.70416 21.082 3.69726C21.082 2.89289 20.4295 2.24388 19.6286 2.24388C19.4525 2.24388 19.2903 2.2784 19.1349 2.33709C18.7069 1.88485 18.0371 1.59141 17.2776 1.59141C16.5769 1.59141 15.9486 1.84342 15.517 2.24043C15.0648 1.9677 14.5055 1.802 13.9014 1.802C13.6459 1.802 13.4008 1.83307 13.1661 1.88485C12.8243 1.58796 12.3824 1.40845 11.8957 1.40845C11.1293 1.40845 10.4699 1.85378 10.1558 2.49934C9.96589 2.34054 9.72423 2.24388 9.45841 2.24388C8.85083 2.24388 8.36061 2.73754 8.36061 3.34168C8.36061 3.40727 8.36752 3.46941 8.38133 3.53155C7.18341 3.54881 6.2168 4.52578 6.2168 5.72715C6.2168 6.45556 6.57237 7.10113 7.12127 7.50158C6.91759 7.83299 6.80022 8.22309 6.80022 8.64426C6.80022 9.85943 7.7841 10.8433 8.99927 10.8433C10.2144 10.8433 11.1983 9.85943 11.1983 8.64426C11.1983 8.62009 11.1983 8.59593 11.1949 8.57176C11.4883 8.71676 11.8163 8.79961 12.1649 8.79961C13.3283 8.79961 14.2777 7.89513 14.3571 6.75591C14.7541 7.15981 15.3064 7.40837 15.9175 7.40837C16.8254 7.40837 17.6056 6.85602 17.9405 6.06892C18.1234 7.10113 19.021 7.88478 20.105 7.88478C21.3202 7.88478 22.3041 6.9009 22.3041 5.68572C22.3041 4.82613 21.8104 4.0839 21.0889 3.72142H21.082Z" fill="#441D39"/>
</svg>
