<svg width="33" height="32" viewBox="0 0 33 32" fill="none" xmlns="http://www.w3.org/2000/svg">
<path d="M12.8594 1.79614C12.8594 1.79614 8.69263 2.69717 8.99642 8.1689C9.30022 13.6406 8.32324 15.1838 8.32324 15.1838L9.39343 14.8869L12.856 17.2585L22.1907 15.3909L23.6545 15.8259L24.1067 14.804C24.1067 14.804 24.6211 15.3564 25.132 15.3875C25.132 15.3875 24.6556 12.9295 24.7454 11.8317C24.9352 9.53252 23.8305 6.18734 23.8305 6.18734L12.8525 1.79614H12.8594Z" fill="#441D39"/>
<path d="M29.9616 27.4805C27.6072 26.69 22.3564 24.0456 20.5716 23.1342C20.4335 23.0651 20.3196 23.003 20.2264 22.9581C20.0607 22.8718 19.964 22.8235 19.964 22.8235H12.8628C12.8628 22.8235 12.7696 22.8718 12.6005 22.9581C12.5073 23.0065 12.3899 23.0651 12.2552 23.1342C11.9929 23.2688 11.658 23.438 11.2679 23.6348C8.99291 24.7809 4.87444 26.8073 2.86526 27.4805C0.00683594 28.4437 0.00683594 33.3251 0.00683594 33.3251H32.82C32.82 33.3251 32.82 28.4437 29.9616 27.4805Z" fill="#FDEBD9"/>
<path d="M19.5187 19.4436H13.2633L12.8594 22.8199C12.8594 23.4827 14.4508 24.0212 16.4117 24.0212C18.3725 24.0212 19.964 23.4827 19.964 22.8199L19.5221 19.4436H19.5187Z" fill="#C1735C"/>
<path d="M10.5316 7.73368C10.5316 7.73368 10.7594 5.8764 12.3336 5.53118C12.3336 5.53118 23.4048 5.53118 21.1851 5.53118C21.1851 5.53118 22.6246 5.53118 22.925 7.6025C22.9698 7.9132 23.429 11.0996 23.4014 12.3527C23.3841 13.1571 23.6983 12.7325 23.6983 12.7325C23.6983 12.7325 24.0366 11.4482 24.0918 9.76357C24.1954 6.55303 23.7777 1.03296 17.0079 1.03296C10.2381 1.03296 9.61328 5.0962 9.61328 10.3366L9.86184 12.9154C9.8722 13.019 9.9585 13.0949 10.0621 13.0949C10.2588 13.0949 10.5281 7.73368 10.5281 7.73368H10.5316Z" fill="#C1735C"/>
<path d="M22.6913 7.06381C22.8229 7.06381 22.9295 6.95716 22.9295 6.8256C22.9295 6.69405 22.8229 6.5874 22.6913 6.5874C22.5598 6.5874 22.4531 6.69405 22.4531 6.8256C22.4531 6.95716 22.5598 7.06381 22.6913 7.06381Z" fill="#FF9988"/>
<path d="M12.9932 21.7011C12.9932 21.7011 17.8435 22.1464 19.5523 20.0198V17.5757L13.404 18.166L12.9932 21.7011Z" fill="#A5503C"/>
<path d="M16.9209 2.34814C20.5106 2.34814 23.4742 5.75856 23.9365 10.1792C24.3044 10.212 24.9119 10.3869 24.9883 11.1899C25.0986 12.3513 24.7092 13.2443 23.9844 13.6304C23.9844 13.6304 23.9148 13.661 23.7646 13.7017C22.9634 17.5711 20.2042 20.4243 16.9209 20.4243C13.7236 20.4242 11.0228 17.7185 10.1436 14.0034C9.90334 13.9655 9.78996 13.9235 9.78223 13.9204C9.03662 13.5792 8.59051 12.7137 8.63184 11.5454C8.6697 10.4774 9.70005 10.4496 9.87695 10.4526C10.243 5.89988 13.2575 2.34826 16.9209 2.34814Z" fill="#C1735C"/>
<path d="M20.0427 12.0971C20.2734 12.0971 20.4604 11.7726 20.4604 11.3722C20.4604 10.9718 20.2734 10.6472 20.0427 10.6472C19.812 10.6472 19.625 10.9718 19.625 11.3722C19.625 11.7726 19.812 12.0971 20.0427 12.0971Z" fill="#441D39"/>
<path d="M13.7771 11.9487C14.0078 11.9487 14.1948 11.6241 14.1948 11.2237C14.1948 10.8234 14.0078 10.4988 13.7771 10.4988C13.5464 10.4988 13.3594 10.8234 13.3594 11.2237C13.3594 11.6241 13.5464 11.9487 13.7771 11.9487Z" fill="#441D39"/>
<path d="M17.1877 14.631H16.5284C16.2349 14.631 15.976 14.517 15.8379 14.3306C15.7378 14.196 15.7102 14.0372 15.7585 13.8818C15.907 13.3985 16.1107 12.0867 16.1141 12.0729C16.1279 11.9797 16.2177 11.9175 16.3109 11.9279C16.4041 11.9417 16.4697 12.0314 16.4559 12.1247C16.449 12.1799 16.2453 13.4779 16.0899 13.9819C16.0761 14.0303 16.083 14.0786 16.1176 14.1269C16.1901 14.227 16.3523 14.2892 16.5318 14.2892H17.1912C17.2879 14.2892 17.3638 14.3651 17.3638 14.4618C17.3638 14.5585 17.2879 14.6344 17.1912 14.6344L17.1877 14.631Z" fill="#A5503C"/>
<path d="M20.4119 13.233C21.0773 13.233 21.6167 13.1094 21.6167 12.9568C21.6167 12.8043 21.0773 12.6807 20.4119 12.6807C19.7464 12.6807 19.207 12.8043 19.207 12.9568C19.207 13.1094 19.7464 13.233 20.4119 13.233Z" fill="#AF5D4E"/>
<path d="M13.3806 13.233C14.046 13.233 14.5854 13.1094 14.5854 12.9568C14.5854 12.8043 14.046 12.6807 13.3806 12.6807C12.7152 12.6807 12.1758 12.8043 12.1758 12.9568C12.1758 13.1094 12.7152 13.233 13.3806 13.233Z" fill="#AF5D4E"/>
<path d="M21.5279 9.6085C20.3611 9.34268 19.4946 9.60851 18.9664 9.71207C18.742 9.75695 18.673 9.47732 18.673 9.47732C18.6177 9.2909 18.8628 9.14246 19.0424 9.10103C19.6396 8.95259 20.406 8.84902 21.5728 9.17698C21.7972 9.23912 21.8214 9.42554 21.8214 9.42554C21.8076 9.63267 21.6798 9.64648 21.5279 9.6085Z" fill="#441D39"/>
<path d="M12.2201 9.5596C13.3973 9.33866 14.2535 9.64245 14.7782 9.76328C15.0026 9.81506 15.0785 9.54234 15.0785 9.54234C15.1407 9.35937 14.9025 9.20057 14.7264 9.14879C14.1361 8.97963 13.3732 8.84499 12.1925 9.12462C11.9647 9.17986 11.9336 9.36282 11.9336 9.36282C11.937 9.56996 12.0648 9.58722 12.2201 9.5596Z" fill="#441D39"/>
<path d="M16.6637 17.2548C15.8455 17.2548 15.1999 17.0822 15.1551 17.0719C15.0619 17.0477 15.0101 16.951 15.0342 16.8613C15.0584 16.7681 15.1551 16.7163 15.2448 16.7405C15.2621 16.7439 16.8501 17.1651 18.1309 16.6645C18.2206 16.63 18.3207 16.6749 18.3552 16.7612C18.3898 16.8509 18.3449 16.951 18.2586 16.9856C17.7304 17.1927 17.1642 17.2583 16.6637 17.2583V17.2548Z" fill="#A5503C"/>
<path d="M21.7929 1.62028C17.0565 -2.12536 12.8586 1.79634 12.8586 1.79634C8.70563 2.55582 9.29595 8.68693 9.39607 9.34285C9.49618 9.99531 9.62391 10.4476 9.62391 10.4476C9.71367 10.451 9.79652 10.4476 9.87592 10.4303L10.228 12.9573C10.2522 13.0471 10.3868 13.054 10.4179 12.9573C10.449 12.9228 10.5457 11.4452 10.6389 9.90211C11.426 8.73871 11.3914 6.01493 12.8586 4.7963C13.5767 4.19907 14.5847 4.66857 14.5847 4.66857C14.5847 4.66857 15.3373 3.33947 17.129 4.11277C18.7412 4.80666 20.7227 9.1806 22.908 10.2197C22.9943 11.642 23.0806 12.9262 23.1082 12.9608C23.1393 13.0574 23.2739 13.0505 23.2981 12.9608L23.6502 10.4372L24.6513 9.91591C24.6513 9.91591 25.1036 3.68814 21.786 1.62373L21.7929 1.62028Z" fill="#441D39"/>
<path d="M29.9607 27.4808C28.7179 27.0631 26.6673 26.1275 24.7444 25.2058L19.3797 27.108V32.2414H19.0345V27.2288L17.9229 27.6224V33.3219H32.8191C32.8191 33.3219 32.8191 28.4405 29.9607 27.4774V27.4808Z" fill="#4598C4"/>
<path d="M22.176 23.1999C20.4775 22.6165 17.9229 27.6222 17.9229 27.6222L19.0345 27.2286V32.2412H19.3797V27.1078L24.7444 25.2056L24.7651 25.1987C24.7651 25.1987 23.8779 23.7833 22.1794 23.1999H22.176Z" fill="#2B7FA5"/>
<path d="M13.8813 27.2523L13.0838 32.1026L12.7421 32.0474L13.5499 27.1349L8.0885 25.1982C6.16218 26.1234 4.10467 27.0624 2.85842 27.4801C3.29227e-07 28.4433 0 33.3247 0 33.3247H14.8548L14.9308 27.6251L13.8813 27.2523Z" fill="#4598C4"/>
<path d="M10.6775 23.1999C8.98246 23.7798 8.09525 25.1918 8.0918 25.1987L13.5532 27.1354L12.7454 32.0478L13.0871 32.1031L13.8846 27.2527L14.9341 27.6256C14.9341 27.6256 12.376 22.6199 10.6809 23.2033L10.6775 23.1999Z" fill="#2B7FA5"/>
</svg>
