<svg width="33" height="32" viewBox="0 0 33 32" fill="none" xmlns="http://www.w3.org/2000/svg">
<path d="M23.5882 10.2373C23.5882 10.2373 24.8103 10.0889 24.9208 11.2523C25.0313 12.4157 24.6412 13.3098 23.9162 13.6964C23.9162 13.6964 23.7609 13.7724 23.4053 13.8345L23.5882 10.2408V10.2373Z" fill="#FFB69F"/>
<path d="M9.7622 10.2373C9.7622 10.2373 8.54012 10.0889 8.42965 11.2523C8.31918 12.4157 8.70927 13.3098 9.43424 13.6964C9.43424 13.6964 9.58959 13.7724 9.94516 13.8345L9.7622 10.2408V10.2373Z" fill="#FFB69F"/>
<path d="M0 33.057C0 33.057 0 28.1756 2.85842 27.2125C5.71684 26.2493 12.1759 22.552 12.1759 22.552H16.5464V33.057H0Z" fill="#F49037"/>
<path d="M32.8228 33.057C32.8228 33.057 32.8228 28.1756 29.9643 27.2125C27.1059 26.2493 20.7159 22.552 20.7159 22.552H16.2764V33.057H32.8228Z" fill="#F49037"/>
<path d="M13.2633 19.1753L12.8594 22.5515H19.964L19.5221 19.1753H13.2633Z" fill="#FFB69F"/>
<path d="M16.4117 24.5716C18.3736 24.5716 19.964 23.8807 19.964 23.0285C19.964 22.1762 18.3736 21.4854 16.4117 21.4854C14.4498 21.4854 12.8594 22.1762 12.8594 23.0285C12.8594 23.8807 14.4498 24.5716 16.4117 24.5716Z" fill="#FFB69F"/>
<path d="M12.9932 21.433C12.9932 21.433 17.8435 21.8783 19.5523 19.7518V17.3076L13.404 17.8979L12.9932 21.433Z" fill="#FF9988"/>
<path d="M16.7016 20.1558C20.612 20.1558 23.782 16.1033 23.782 11.1042C23.782 6.10506 20.612 2.05249 16.7016 2.05249C12.7911 2.05249 9.62109 6.10506 9.62109 11.1042C9.62109 16.1033 12.7911 20.1558 16.7016 20.1558Z" fill="#FFB69F"/>
<path d="M22.8837 3.8755C22.8837 3.8755 22.8906 3.85824 22.8837 3.84788C22.649 3.28517 22.3624 0.457823 17.7572 0.0297498C16.5765 -0.0807206 14.8884 0.116055 13.8182 0.62698C12.351 1.32432 10.7113 1.72478 9.26133 1.72133C9.19919 1.72133 9.17502 1.80418 9.23026 1.83525L10.3626 2.73627C10.4075 2.76044 10.404 2.82603 10.3557 2.84674L8.93337 3.27827C8.88159 3.29898 8.88159 3.37493 8.93337 3.39219C9.16467 3.46814 9.75154 3.72706 10.2832 3.91002C9.41322 5.4497 9.61345 7.66256 9.61345 10.3208C9.61345 10.3208 9.58584 13.0756 10.5145 16.2344C11.5294 19.6866 13.7561 21.1676 16.8941 21.1779C20.2359 21.1917 21.9792 18.3264 22.4453 17.308C23.1564 15.7476 23.7675 12.8478 23.7709 11.1044C23.7709 11.1044 25.0551 6.6994 22.8768 3.8755H22.8837ZM20.046 16.6659C19.3556 17.018 19.7042 15.1849 18.3303 15.109C17.8711 15.0813 16.3107 14.9743 14.9989 15.0848C14.0012 15.1711 13.7595 16.0687 13.7147 16.5244C13.694 16.7211 13.6249 16.8109 13.4385 16.7419C13.0242 16.59 12.1439 16.0997 11.7297 15.6441C11.3016 15.1746 10.5283 13.9076 10.4558 11.2321L10.5317 7.41055C10.5317 7.41055 12.068 6.12288 12.3338 5.20805C12.3338 5.20805 19.1968 6.30585 21.1852 5.20805C21.1852 5.20805 22.0172 6.79952 22.9251 7.27937C23.2048 7.42436 23.1564 9.24022 23.1323 10.4934C23.1081 10.6625 23.0874 10.8559 23.077 11.0837C22.8941 14.6636 20.7295 16.3172 20.0425 16.6694L20.046 16.6659Z" fill="#B54D4D"/>
<path d="M20.0466 11.8288C20.2773 11.8288 20.4643 11.5043 20.4643 11.1039C20.4643 10.7035 20.2773 10.3789 20.0466 10.3789C19.8159 10.3789 19.6289 10.7035 19.6289 11.1039C19.6289 11.5043 19.8159 11.8288 20.0466 11.8288Z" fill="#441D39"/>
<path d="M13.781 11.6804C14.0117 11.6804 14.1987 11.3558 14.1987 10.9554C14.1987 10.555 14.0117 10.2305 13.781 10.2305C13.5503 10.2305 13.3633 10.555 13.3633 10.9554C13.3633 11.3558 13.5503 11.6804 13.781 11.6804Z" fill="#441D39"/>
<path d="M17.1877 14.3631H16.5284C16.2349 14.3631 15.976 14.2492 15.8379 14.0593C15.7378 13.9247 15.7102 13.7659 15.7585 13.6106C15.907 13.1342 16.1003 11.3563 16.1003 11.339C16.1107 11.2423 16.1935 11.1768 16.2902 11.1871C16.3834 11.1975 16.4524 11.2838 16.4421 11.377C16.4352 11.4529 16.2418 13.2032 16.0865 13.7141C16.0727 13.7659 16.0796 13.8108 16.1141 13.8591C16.1866 13.9558 16.3489 14.0214 16.5284 14.0214H17.1877C17.2844 14.0214 17.3604 14.0973 17.3604 14.194C17.3604 14.2906 17.2844 14.3666 17.1877 14.3666V14.3631Z" fill="#FF9988"/>
<path d="M20.4118 12.9647C21.0773 12.9647 21.6167 12.8411 21.6167 12.6885C21.6167 12.536 21.0773 12.4124 20.4118 12.4124C19.7464 12.4124 19.207 12.536 19.207 12.6885C19.207 12.8411 19.7464 12.9647 20.4118 12.9647Z" fill="#FF9988"/>
<path d="M13.3796 12.9647C14.045 12.9647 14.5844 12.8411 14.5844 12.6885C14.5844 12.536 14.045 12.4124 13.3796 12.4124C12.7142 12.4124 12.1748 12.536 12.1748 12.6885C12.1748 12.8411 12.7142 12.9647 13.3796 12.9647Z" fill="#FF9988"/>
<path d="M21.5104 9.41927C20.3608 9.08096 19.4805 9.29499 18.9454 9.36404C18.7176 9.39166 18.6693 9.11203 18.6693 9.11203C18.6244 8.92216 18.8798 8.79097 19.0594 8.75645C19.6635 8.64598 20.4368 8.59075 21.5829 8.98775C21.8039 9.0637 21.8177 9.25012 21.8177 9.25012C21.7935 9.45725 21.6623 9.4607 21.5104 9.41582V9.41927Z" fill="#B54D4D"/>
<path d="M12.255 9.44031C13.3977 9.08128 14.2815 9.28151 14.8166 9.3402C15.0444 9.36436 15.0893 9.08474 15.0893 9.08474C15.1307 8.89487 14.8718 8.76713 14.6923 8.73606C14.0847 8.63595 13.3114 8.59107 12.1756 9.00879C11.9547 9.08819 11.9443 9.27461 11.9443 9.27461C11.972 9.48174 12.1031 9.48174 12.2516 9.43686L12.255 9.44031Z" fill="#B54D4D"/>
<path d="M16.6631 17.1665C15.8484 17.1665 15.1994 16.9938 15.158 16.9835C15.0648 16.9593 15.013 16.8627 15.0372 16.7729C15.0613 16.6832 15.158 16.6279 15.2477 16.6521C15.265 16.6555 16.853 17.0767 18.1338 16.5761C18.2235 16.5416 18.3237 16.5865 18.3582 16.6728C18.3927 16.7626 18.3478 16.8627 18.2615 16.8972C17.7333 17.1043 17.1672 17.1699 16.6666 17.1699L16.6631 17.1665Z" fill="#9B3D3D"/>
<path d="M13.0109 21.4502L15.7589 23.411L14.4298 26.594L10.874 23.2833L13.0109 21.4502Z" fill="#FFA242"/>
<path d="M15.7589 23.4111L15.9247 24.5883L15.2998 24.5089L15.7589 23.4111Z" fill="#F49037"/>
<path d="M17.3266 23.3491L17.085 24.5885L17.7616 24.4745L17.3266 23.3491Z" fill="#F49037"/>
<path d="M17.3262 23.3491L19.8428 21.5022L22.2007 23.394L18.6932 26.898L17.3262 23.3491Z" fill="#FFA242"/>
<path d="M17.0813 25.0405H15.9248V33.0531H17.0813V25.0405Z" fill="white"/>
<path d="M15.8999 24.4231L15.9241 25.1274C15.9241 25.1274 16.4626 25.3621 17.0806 25.1274L17.0979 24.4887L15.8965 24.4197L15.8999 24.4231Z" fill="#FFB69F"/>
<path d="M17.0813 26.7324H15.9248V27.0776H17.0813V26.7324Z" fill="#D6D6D6"/>
<path d="M17.0813 28.2891H15.9248V28.6343H17.0813V28.2891Z" fill="#D6D6D6"/>
<path d="M17.0813 29.8459H15.9248V30.1912H17.0813V29.8459Z" fill="#D6D6D6"/>
<path d="M17.0813 31.4028H15.9248V31.7481H17.0813V31.4028Z" fill="#D6D6D6"/>
<path d="M18.0645 28.6244C18.2323 28.6244 18.3683 28.4884 18.3683 28.3206C18.3683 28.1529 18.2323 28.0168 18.0645 28.0168C17.8968 28.0168 17.7607 28.1529 17.7607 28.3206C17.7607 28.4884 17.8968 28.6244 18.0645 28.6244Z" fill="#FFA242"/>
<path d="M18.0645 32.0138C18.2323 32.0138 18.3683 31.8778 18.3683 31.71C18.3683 31.5423 18.2323 31.4062 18.0645 31.4062C17.8968 31.4062 17.7607 31.5423 17.7607 31.71C17.7607 31.8778 17.8968 32.0138 18.0645 32.0138Z" fill="#FFA242"/>
</svg>
