<svg width="457" height="232" viewBox="0 0 457 232" fill="none" xmlns="http://www.w3.org/2000/svg">
<circle cx="3.71545" cy="188.322" r="3.71545" fill="#FF4B28"/>
<circle cx="137.843" cy="166.772" r="3.71545" transform="rotate(-90 137.843 166.772)" fill="#FF4B28"/>
<circle cx="108.491" cy="166.773" r="3.71545" fill="#FF4B28"/>
<circle cx="250.793" cy="114.013" r="3.71545" transform="rotate(-90 250.793 114.013)" fill="#FF4B28"/>
<circle cx="364.114" cy="14.4388" r="3.71545" transform="rotate(-90 364.114 14.4388)" fill="#FF4B28"/>
<circle cx="235.559" cy="222.504" r="3.71545" transform="rotate(-90 235.559 222.504)" fill="#FF4B28"/>
<circle cx="3.71545" cy="210.615" r="3.71545" fill="#FF4B28"/>
<circle cx="160.135" cy="166.772" r="3.71545" transform="rotate(-90 160.135 166.772)" fill="#FF4B28"/>
<circle cx="108.491" cy="189.065" r="3.71545" fill="#FF4B28"/>
<circle cx="273.086" cy="114.013" r="3.71545" transform="rotate(-90 273.086 114.013)" fill="#FF4B28"/>
<circle cx="386.407" cy="14.4388" r="3.71545" transform="rotate(-90 386.407 14.4388)" fill="#FF4B28"/>
<circle cx="257.852" cy="222.504" r="3.71545" transform="rotate(-90 257.852 222.504)" fill="#FF4B28"/>
<circle cx="3.71545" cy="232.907" r="3.71545" fill="#FF4B28"/>
<circle cx="182.428" cy="166.772" r="3.71545" transform="rotate(-90 182.428 166.772)" fill="#FF4B28"/>
<circle cx="56.4752" cy="234.394" r="3.71545" fill="#FF4B28"/>
<circle cx="183.915" cy="114.013" r="3.71545" transform="rotate(-90 183.915 114.013)" fill="#FF4B28"/>
<circle cx="297.236" cy="14.4388" r="3.71545" transform="rotate(-90 297.236 14.4388)" fill="#FF4B28"/>
<circle cx="168.681" cy="222.504" r="3.71545" transform="rotate(-90 168.681 222.504)" fill="#FF4B28"/>
<circle cx="108.491" cy="211.358" r="3.71545" fill="#FF4B28"/>
<circle cx="295.378" cy="114.013" r="3.71545" transform="rotate(-90 295.378 114.013)" fill="#FF4B28"/>
<circle cx="408.699" cy="14.4388" r="3.71545" transform="rotate(-90 408.699 14.4388)" fill="#FF4B28"/>
<circle cx="280.145" cy="222.504" r="3.71545" transform="rotate(-90 280.145 222.504)" fill="#FF4B28"/>
<circle cx="204.721" cy="166.772" r="3.71545" transform="rotate(-90 204.721 166.772)" fill="#FF4B28"/>
<circle cx="318.043" cy="67.1986" r="3.71545" transform="rotate(-90 318.043 67.1986)" fill="#FF4B28"/>
<circle cx="206.208" cy="114.013" r="3.71545" transform="rotate(-90 206.208 114.013)" fill="#FF4B28"/>
<circle cx="319.529" cy="14.4388" r="3.71545" transform="rotate(-90 319.529 14.4388)" fill="#FF4B28"/>
<circle cx="190.974" cy="222.504" r="3.71545" transform="rotate(-90 190.974 222.504)" fill="#FF4B28"/>
<circle cx="108.491" cy="233.651" r="3.71545" fill="#FF4B28"/>
<circle cx="317.671" cy="114.013" r="3.71545" transform="rotate(-90 317.671 114.013)" fill="#FF4B28"/>
<circle cx="430.992" cy="14.4388" r="3.71545" transform="rotate(-90 430.992 14.4388)" fill="#FF4B28"/>
<circle cx="302.437" cy="222.504" r="3.71545" transform="rotate(-90 302.437 222.504)" fill="#FF4B28"/>
<circle cx="227.014" cy="166.772" r="3.71545" transform="rotate(-90 227.014 166.772)" fill="#FF4B28"/>
<circle cx="340.335" cy="67.1986" r="3.71545" transform="rotate(-90 340.335 67.1986)" fill="#FF4B28"/>
<circle cx="228.5" cy="114.013" r="3.71545" transform="rotate(-90 228.5 114.013)" fill="#FF4B28"/>
<circle cx="341.821" cy="14.4388" r="3.71545" transform="rotate(-90 341.821 14.4388)" fill="#FF4B28"/>
<circle cx="213.266" cy="222.504" r="3.71545" transform="rotate(-90 213.266 222.504)" fill="#FF4B28"/>
<circle cx="339.964" cy="114.013" r="3.71545" transform="rotate(-90 339.964 114.013)" fill="#FF4B28"/>
<circle cx="453.285" cy="14.4388" r="3.71545" transform="rotate(-90 453.285 14.4388)" fill="#FF4B28"/>
<circle cx="324.73" cy="222.504" r="3.71545" transform="rotate(-90 324.73 222.504)" fill="#FF4B28"/>
<circle cx="33.4391" cy="232.907" r="3.71545" fill="#FF4B28"/>
<circle cx="182.428" cy="137.049" r="3.71545" transform="rotate(-90 182.428 137.049)" fill="#FF4B28"/>
<circle cx="86.1988" cy="234.394" r="3.71545" fill="#FF4B28"/>
<circle cx="183.915" cy="84.2894" r="3.71545" transform="rotate(-90 183.915 84.2894)" fill="#FF4B28"/>
<circle cx="168.681" cy="192.781" r="3.71545" transform="rotate(-90 168.681 192.781)" fill="#FF4B28"/>
<circle cx="138.214" cy="211.358" r="3.71545" fill="#FF4B28"/>
<circle cx="295.378" cy="84.2894" r="3.71545" transform="rotate(-90 295.378 84.2894)" fill="#FF4B28"/>
<circle cx="280.145" cy="192.781" r="3.71545" transform="rotate(-90 280.145 192.781)" fill="#FF4B28"/>
<circle cx="204.721" cy="137.049" r="3.71545" transform="rotate(-90 204.721 137.049)" fill="#FF4B28"/>
<circle cx="318.043" cy="37.475" r="3.71545" transform="rotate(-90 318.043 37.475)" fill="#FF4B28"/>
<circle cx="206.208" cy="84.2894" r="3.71545" transform="rotate(-90 206.208 84.2894)" fill="#FF4B28"/>
<circle cx="190.974" cy="192.781" r="3.71545" transform="rotate(-90 190.974 192.781)" fill="#FF4B28"/>
<circle cx="138.214" cy="233.651" r="3.71545" fill="#FF4B28"/>
<circle cx="317.671" cy="84.2894" r="3.71545" transform="rotate(-90 317.671 84.2894)" fill="#FF4B28"/>
<circle cx="302.437" cy="192.781" r="3.71545" transform="rotate(-90 302.437 192.781)" fill="#FF4B28"/>
<circle cx="227.014" cy="137.049" r="3.71545" transform="rotate(-90 227.014 137.049)" fill="#FF4B28"/>
<circle cx="340.335" cy="37.475" r="3.71545" transform="rotate(-90 340.335 37.475)" fill="#FF4B28"/>
<circle cx="228.5" cy="84.2894" r="3.71545" transform="rotate(-90 228.5 84.2894)" fill="#FF4B28"/>
<circle cx="213.266" cy="192.781" r="3.71545" transform="rotate(-90 213.266 192.781)" fill="#FF4B28"/>
<circle cx="339.964" cy="84.2894" r="3.71545" transform="rotate(-90 339.964 84.2894)" fill="#FF4B28"/>
<circle cx="324.73" cy="192.781" r="3.71545" transform="rotate(-90 324.73 192.781)" fill="#FF4B28"/>
</svg>
