<svg width="385" height="351" viewBox="0 0 385 351" fill="none" xmlns="http://www.w3.org/2000/svg">
<circle cx="5" cy="224" r="5" fill="#AFAFAF" fill-opacity="0.25"/>
<circle cx="185.5" cy="195" r="5" transform="rotate(-90 185.5 195)" fill="#AFAFAF" fill-opacity="0.25"/>
<circle cx="146" cy="195" r="5" fill="#AFAFAF" fill-opacity="0.25"/>
<circle cx="337.5" cy="124" r="5" transform="rotate(-90 337.5 124)" fill="#AFAFAF" fill-opacity="0.25"/>
<circle cx="317" cy="270" r="5" transform="rotate(-90 317 270)" fill="#AFAFAF" fill-opacity="0.25"/>
<circle cx="5" cy="254" r="5" fill="#AFAFAF" fill-opacity="0.25"/>
<circle cx="215.5" cy="195" r="5" transform="rotate(-90 215.5 195)" fill="#AFAFAF" fill-opacity="0.25"/>
<circle cx="146" cy="225" r="5" fill="#AFAFAF" fill-opacity="0.25"/>
<circle cx="367.5" cy="124" r="5" transform="rotate(-90 367.5 124)" fill="#AFAFAF" fill-opacity="0.25"/>
<circle cx="347" cy="270" r="5" transform="rotate(-90 347 270)" fill="#AFAFAF" fill-opacity="0.25"/>
<circle cx="5" cy="284" r="5" fill="#AFAFAF" fill-opacity="0.25"/>
<circle cx="245.5" cy="195" r="5" transform="rotate(-90 245.5 195)" fill="#AFAFAF" fill-opacity="0.25"/>
<circle cx="76" cy="286" r="5" fill="#AFAFAF" fill-opacity="0.25"/>
<circle cx="247.5" cy="124" r="5" transform="rotate(-90 247.5 124)" fill="#AFAFAF" fill-opacity="0.25"/>
<circle cx="227" cy="270" r="5" transform="rotate(-90 227 270)" fill="#AFAFAF" fill-opacity="0.25"/>
<circle cx="146" cy="255" r="5" fill="#AFAFAF" fill-opacity="0.25"/>
<circle cx="377" cy="270" r="5" transform="rotate(-90 377 270)" fill="#AFAFAF" fill-opacity="0.25"/>
<circle cx="5" cy="314" r="5" fill="#AFAFAF" fill-opacity="0.25"/>
<circle cx="275.5" cy="195" r="5" transform="rotate(-90 275.5 195)" fill="#AFAFAF" fill-opacity="0.25"/>
<circle cx="255" cy="341" r="5" transform="rotate(-90 255 341)" fill="#AFAFAF" fill-opacity="0.25"/>
<circle cx="76" cy="316" r="5" fill="#AFAFAF" fill-opacity="0.25"/>
<circle cx="277.5" cy="124" r="5" transform="rotate(-90 277.5 124)" fill="#AFAFAF" fill-opacity="0.25"/>
<circle cx="257" cy="270" r="5" transform="rotate(-90 257 270)" fill="#AFAFAF" fill-opacity="0.25"/>
<circle cx="146" cy="285" r="5" fill="#AFAFAF" fill-opacity="0.25"/>
<circle cx="5" cy="344" r="5" fill="#AFAFAF" fill-opacity="0.25"/>
<circle cx="305.5" cy="195" r="5" transform="rotate(-90 305.5 195)" fill="#AFAFAF" fill-opacity="0.25"/>
<circle cx="285" cy="341" r="5" transform="rotate(-90 285 341)" fill="#AFAFAF" fill-opacity="0.25"/>
<circle cx="76" cy="346" r="5" fill="#AFAFAF" fill-opacity="0.25"/>
<circle cx="307.5" cy="124" r="5" transform="rotate(-90 307.5 124)" fill="#AFAFAF" fill-opacity="0.25"/>
<circle cx="287" cy="270" r="5" transform="rotate(-90 287 270)" fill="#AFAFAF" fill-opacity="0.25"/>
<circle cx="146" cy="315" r="5" fill="#AFAFAF" fill-opacity="0.25"/>
<circle cx="45" cy="284" r="5" fill="#AFAFAF" fill-opacity="0.25"/>
<circle cx="245.5" cy="155" r="5" transform="rotate(-90 245.5 155)" fill="#AFAFAF" fill-opacity="0.25"/>
<circle cx="116" cy="286" r="5" fill="#AFAFAF" fill-opacity="0.25"/>
<circle cx="247.5" cy="84" r="5" transform="rotate(-90 247.5 84)" fill="#AFAFAF" fill-opacity="0.25"/>
<circle cx="227" cy="230" r="5" transform="rotate(-90 227 230)" fill="#AFAFAF" fill-opacity="0.25"/>
<circle cx="186" cy="255" r="5" fill="#AFAFAF" fill-opacity="0.25"/>
<circle cx="377" cy="230" r="5" transform="rotate(-90 377 230)" fill="#AFAFAF" fill-opacity="0.25"/>
<circle cx="45" cy="314" r="5" fill="#AFAFAF" fill-opacity="0.25"/>
<circle cx="275.5" cy="155" r="5" transform="rotate(-90 275.5 155)" fill="#AFAFAF" fill-opacity="0.25"/>
<circle cx="255" cy="301" r="5" transform="rotate(-90 255 301)" fill="#AFAFAF" fill-opacity="0.25"/>
<circle cx="116" cy="316" r="5" fill="#AFAFAF" fill-opacity="0.25"/>
<circle cx="277.5" cy="84" r="5" transform="rotate(-90 277.5 84)" fill="#AFAFAF" fill-opacity="0.25"/>
<circle cx="257" cy="230" r="5" transform="rotate(-90 257 230)" fill="#AFAFAF" fill-opacity="0.25"/>
<circle cx="186" cy="285" r="5" fill="#AFAFAF" fill-opacity="0.25"/>
<circle cx="45" cy="344" r="5" fill="#AFAFAF" fill-opacity="0.25"/>
<circle cx="305.5" cy="155" r="5" transform="rotate(-90 305.5 155)" fill="#AFAFAF" fill-opacity="0.25"/>
<circle cx="285" cy="301" r="5" transform="rotate(-90 285 301)" fill="#AFAFAF" fill-opacity="0.25"/>
<circle cx="116" cy="346" r="5" fill="#AFAFAF" fill-opacity="0.25"/>
<circle cx="307.5" cy="84" r="5" transform="rotate(-90 307.5 84)" fill="#AFAFAF" fill-opacity="0.25"/>
<circle cx="287" cy="230" r="5" transform="rotate(-90 287 230)" fill="#AFAFAF" fill-opacity="0.25"/>
<circle cx="186" cy="315" r="5" fill="#AFAFAF" fill-opacity="0.25"/>
</svg>
