<svg width="558" height="334" viewBox="0 0 558 334" fill="none" xmlns="http://www.w3.org/2000/svg">
<circle cx="5" cy="279" r="5" fill="white" fill-opacity="0.25"/>
<circle cx="185.5" cy="250" r="5" transform="rotate(-90 185.5 250)" fill="white" fill-opacity="0.25"/>
<circle cx="146" cy="250" r="5" fill="white" fill-opacity="0.25"/>
<circle cx="337.5" cy="179" r="5" transform="rotate(-90 337.5 179)" fill="white" fill-opacity="0.25"/>
<circle cx="490" cy="45" r="5" transform="rotate(-90 490 45)" fill="white" fill-opacity="0.25"/>
<circle cx="317" cy="325" r="5" transform="rotate(-90 317 325)" fill="white" fill-opacity="0.25"/>
<circle cx="5" cy="309" r="5" fill="white" fill-opacity="0.25"/>
<circle cx="215.5" cy="250" r="5" transform="rotate(-90 215.5 250)" fill="white" fill-opacity="0.25"/>
<circle cx="146" cy="280" r="5" fill="white" fill-opacity="0.25"/>
<circle cx="367.5" cy="179" r="5" transform="rotate(-90 367.5 179)" fill="white" fill-opacity="0.25"/>
<circle cx="520" cy="45" r="5" transform="rotate(-90 520 45)" fill="white" fill-opacity="0.25"/>
<circle cx="347" cy="325" r="5" transform="rotate(-90 347 325)" fill="white" fill-opacity="0.25"/>
<circle cx="245.5" cy="250" r="5" transform="rotate(-90 245.5 250)" fill="white" fill-opacity="0.25"/>
<circle cx="247.5" cy="179" r="5" transform="rotate(-90 247.5 179)" fill="white" fill-opacity="0.25"/>
<circle cx="400" cy="45" r="5" transform="rotate(-90 400 45)" fill="white" fill-opacity="0.25"/>
<circle cx="227" cy="325" r="5" transform="rotate(-90 227 325)" fill="white" fill-opacity="0.25"/>
<circle cx="146" cy="310" r="5" fill="white" fill-opacity="0.25"/>
<circle cx="397.5" cy="179" r="5" transform="rotate(-90 397.5 179)" fill="white" fill-opacity="0.25"/>
<circle cx="550" cy="45" r="5" transform="rotate(-90 550 45)" fill="white" fill-opacity="0.25"/>
<circle cx="377" cy="325" r="5" transform="rotate(-90 377 325)" fill="white" fill-opacity="0.25"/>
<circle cx="275.5" cy="250" r="5" transform="rotate(-90 275.5 250)" fill="white" fill-opacity="0.25"/>
<circle cx="428" cy="116" r="5" transform="rotate(-90 428 116)" fill="white" fill-opacity="0.25"/>
<circle cx="277.5" cy="179" r="5" transform="rotate(-90 277.5 179)" fill="white" fill-opacity="0.25"/>
<circle cx="430" cy="45" r="5" transform="rotate(-90 430 45)" fill="white" fill-opacity="0.25"/>
<circle cx="257" cy="325" r="5" transform="rotate(-90 257 325)" fill="white" fill-opacity="0.25"/>
<circle cx="427.5" cy="179" r="5" transform="rotate(-90 427.5 179)" fill="white" fill-opacity="0.25"/>
<circle cx="407" cy="325" r="5" transform="rotate(-90 407 325)" fill="white" fill-opacity="0.25"/>
<circle cx="305.5" cy="250" r="5" transform="rotate(-90 305.5 250)" fill="white" fill-opacity="0.25"/>
<circle cx="458" cy="116" r="5" transform="rotate(-90 458 116)" fill="white" fill-opacity="0.25"/>
<circle cx="307.5" cy="179" r="5" transform="rotate(-90 307.5 179)" fill="white" fill-opacity="0.25"/>
<circle cx="460" cy="45" r="5" transform="rotate(-90 460 45)" fill="white" fill-opacity="0.25"/>
<circle cx="287" cy="325" r="5" transform="rotate(-90 287 325)" fill="white" fill-opacity="0.25"/>
<circle cx="457.5" cy="179" r="5" transform="rotate(-90 457.5 179)" fill="white" fill-opacity="0.25"/>
<circle cx="437" cy="325" r="5" transform="rotate(-90 437 325)" fill="white" fill-opacity="0.25"/>
<circle cx="245.5" cy="210" r="5" transform="rotate(-90 245.5 210)" fill="white" fill-opacity="0.25"/>
<circle cx="247.5" cy="139" r="5" transform="rotate(-90 247.5 139)" fill="white" fill-opacity="0.25"/>
<circle cx="400" cy="5" r="5" transform="rotate(-90 400 5)" fill="white" fill-opacity="0.25"/>
<circle cx="227" cy="285" r="5" transform="rotate(-90 227 285)" fill="white" fill-opacity="0.25"/>
<circle cx="186" cy="310" r="5" fill="white" fill-opacity="0.25"/>
<circle cx="397.5" cy="139" r="5" transform="rotate(-90 397.5 139)" fill="white" fill-opacity="0.25"/>
<circle cx="550" cy="5" r="5" transform="rotate(-90 550 5)" fill="white" fill-opacity="0.25"/>
<circle cx="377" cy="285" r="5" transform="rotate(-90 377 285)" fill="white" fill-opacity="0.25"/>
<circle cx="275.5" cy="210" r="5" transform="rotate(-90 275.5 210)" fill="white" fill-opacity="0.25"/>
<circle cx="428" cy="76" r="5" transform="rotate(-90 428 76)" fill="white" fill-opacity="0.25"/>
<circle cx="277.5" cy="139" r="5" transform="rotate(-90 277.5 139)" fill="white" fill-opacity="0.25"/>
<circle cx="430" cy="5" r="5" transform="rotate(-90 430 5)" fill="white" fill-opacity="0.25"/>
<circle cx="257" cy="285" r="5" transform="rotate(-90 257 285)" fill="white" fill-opacity="0.25"/>
<circle cx="427.5" cy="139" r="5" transform="rotate(-90 427.5 139)" fill="white" fill-opacity="0.25"/>
<circle cx="407" cy="285" r="5" transform="rotate(-90 407 285)" fill="white" fill-opacity="0.25"/>
<circle cx="305.5" cy="210" r="5" transform="rotate(-90 305.5 210)" fill="white" fill-opacity="0.25"/>
<circle cx="458" cy="76" r="5" transform="rotate(-90 458 76)" fill="white" fill-opacity="0.25"/>
<circle cx="307.5" cy="139" r="5" transform="rotate(-90 307.5 139)" fill="white" fill-opacity="0.25"/>
<circle cx="460" cy="5" r="5" transform="rotate(-90 460 5)" fill="white" fill-opacity="0.25"/>
<circle cx="287" cy="285" r="5" transform="rotate(-90 287 285)" fill="white" fill-opacity="0.25"/>
<circle cx="457.5" cy="139" r="5" transform="rotate(-90 457.5 139)" fill="white" fill-opacity="0.25"/>
<circle cx="437" cy="285" r="5" transform="rotate(-90 437 285)" fill="white" fill-opacity="0.25"/>
</svg>
