<svg width="623" height="352" viewBox="0 0 623 352" fill="none" xmlns="http://www.w3.org/2000/svg">
<circle cx="5" cy="75" r="5" fill="white" fill-opacity="0.25"/>
<circle cx="115.5" cy="227" r="5" transform="rotate(-90 115.5 227)" fill="white" fill-opacity="0.25"/>
<circle cx="76" cy="227" r="5" fill="white" fill-opacity="0.25"/>
<circle cx="267.5" cy="156" r="5" transform="rotate(-90 267.5 156)" fill="white" fill-opacity="0.25"/>
<circle cx="498" cy="45" r="5" transform="rotate(-90 498 45)" fill="white" fill-opacity="0.25"/>
<circle cx="5" cy="105" r="5" fill="white" fill-opacity="0.25"/>
<circle cx="145.5" cy="227" r="5" transform="rotate(-90 145.5 227)" fill="white" fill-opacity="0.25"/>
<circle cx="76" cy="257" r="5" fill="white" fill-opacity="0.25"/>
<circle cx="297.5" cy="156" r="5" transform="rotate(-90 297.5 156)" fill="white" fill-opacity="0.25"/>
<circle cx="528" cy="45" r="5" transform="rotate(-90 528 45)" fill="white" fill-opacity="0.25"/>
<circle cx="5" cy="135" r="5" fill="white" fill-opacity="0.25"/>
<circle cx="175.5" cy="227" r="5" transform="rotate(-90 175.5 227)" fill="white" fill-opacity="0.25"/>
<circle cx="76" cy="137" r="5" fill="white" fill-opacity="0.25"/>
<circle cx="177.5" cy="156" r="5" transform="rotate(-90 177.5 156)" fill="white" fill-opacity="0.25"/>
<circle cx="408" cy="45" r="5" transform="rotate(-90 408 45)" fill="white" fill-opacity="0.25"/>
<circle cx="76" cy="287" r="5" fill="white" fill-opacity="0.25"/>
<circle cx="327.5" cy="156" r="5" transform="rotate(-90 327.5 156)" fill="white" fill-opacity="0.25"/>
<circle cx="558" cy="45" r="5" transform="rotate(-90 558 45)" fill="white" fill-opacity="0.25"/>
<circle cx="5" cy="165" r="5" fill="white" fill-opacity="0.25"/>
<circle cx="205.5" cy="227" r="5" transform="rotate(-90 205.5 227)" fill="white" fill-opacity="0.25"/>
<circle cx="436" cy="116" r="5" transform="rotate(-90 436 116)" fill="white" fill-opacity="0.25"/>
<circle cx="76" cy="167" r="5" fill="white" fill-opacity="0.25"/>
<circle cx="207.5" cy="156" r="5" transform="rotate(-90 207.5 156)" fill="white" fill-opacity="0.25"/>
<circle cx="438" cy="45" r="5" transform="rotate(-90 438 45)" fill="white" fill-opacity="0.25"/>
<circle cx="76" cy="317" r="5" fill="white" fill-opacity="0.25"/>
<circle cx="357.5" cy="156" r="5" transform="rotate(-90 357.5 156)" fill="white" fill-opacity="0.25"/>
<circle cx="588" cy="45" r="5" transform="rotate(-90 588 45)" fill="white" fill-opacity="0.25"/>
<circle cx="5" cy="195" r="5" fill="white" fill-opacity="0.25"/>
<circle cx="235.5" cy="227" r="5" transform="rotate(-90 235.5 227)" fill="white" fill-opacity="0.25"/>
<circle cx="466" cy="116" r="5" transform="rotate(-90 466 116)" fill="white" fill-opacity="0.25"/>
<circle cx="76" cy="197" r="5" fill="white" fill-opacity="0.25"/>
<circle cx="237.5" cy="156" r="5" transform="rotate(-90 237.5 156)" fill="white" fill-opacity="0.25"/>
<circle cx="468" cy="45" r="5" transform="rotate(-90 468 45)" fill="white" fill-opacity="0.25"/>
<circle cx="76" cy="347" r="5" fill="white" fill-opacity="0.25"/>
<circle cx="387.5" cy="156" r="5" transform="rotate(-90 387.5 156)" fill="white" fill-opacity="0.25"/>
<circle cx="618" cy="45" r="5" transform="rotate(-90 618 45)" fill="white" fill-opacity="0.25"/>
<circle cx="45" cy="135" r="5" fill="white" fill-opacity="0.25"/>
<circle cx="175.5" cy="187" r="5" transform="rotate(-90 175.5 187)" fill="white" fill-opacity="0.25"/>
<circle cx="116" cy="137" r="5" fill="white" fill-opacity="0.25"/>
<circle cx="177.5" cy="116" r="5" transform="rotate(-90 177.5 116)" fill="white" fill-opacity="0.25"/>
<circle cx="408" cy="5" r="5" transform="rotate(-90 408 5)" fill="white" fill-opacity="0.25"/>
<circle cx="116" cy="287" r="5" fill="white" fill-opacity="0.25"/>
<circle cx="327.5" cy="116" r="5" transform="rotate(-90 327.5 116)" fill="white" fill-opacity="0.25"/>
<circle cx="558" cy="5" r="5" transform="rotate(-90 558 5)" fill="white" fill-opacity="0.25"/>
<circle cx="45" cy="165" r="5" fill="white" fill-opacity="0.25"/>
<circle cx="205.5" cy="187" r="5" transform="rotate(-90 205.5 187)" fill="white" fill-opacity="0.25"/>
<circle cx="436" cy="76" r="5" transform="rotate(-90 436 76)" fill="white" fill-opacity="0.25"/>
<circle cx="116" cy="167" r="5" fill="white" fill-opacity="0.25"/>
<circle cx="207.5" cy="116" r="5" transform="rotate(-90 207.5 116)" fill="white" fill-opacity="0.25"/>
<circle cx="438" cy="5" r="5" transform="rotate(-90 438 5)" fill="white" fill-opacity="0.25"/>
<circle cx="116" cy="317" r="5" fill="white" fill-opacity="0.25"/>
<circle cx="357.5" cy="116" r="5" transform="rotate(-90 357.5 116)" fill="white" fill-opacity="0.25"/>
<circle cx="588" cy="5" r="5" transform="rotate(-90 588 5)" fill="white" fill-opacity="0.25"/>
<circle cx="45" cy="195" r="5" fill="white" fill-opacity="0.25"/>
<circle cx="235.5" cy="187" r="5" transform="rotate(-90 235.5 187)" fill="white" fill-opacity="0.25"/>
<circle cx="466" cy="76" r="5" transform="rotate(-90 466 76)" fill="white" fill-opacity="0.25"/>
<circle cx="116" cy="197" r="5" fill="white" fill-opacity="0.25"/>
<circle cx="237.5" cy="116" r="5" transform="rotate(-90 237.5 116)" fill="white" fill-opacity="0.25"/>
<circle cx="468" cy="5" r="5" transform="rotate(-90 468 5)" fill="white" fill-opacity="0.25"/>
<circle cx="116" cy="347" r="5" fill="white" fill-opacity="0.25"/>
<circle cx="387.5" cy="116" r="5" transform="rotate(-90 387.5 116)" fill="white" fill-opacity="0.25"/>
<circle cx="618" cy="5" r="5" transform="rotate(-90 618 5)" fill="white" fill-opacity="0.25"/>
</svg>
