<svg width="139" height="34" viewBox="0 0 139 34" fill="none" xmlns="http://www.w3.org/2000/svg">
<g clip-path="url(#clip0_1_1328)">
<path d="M0.00692523 16.8201C0.00692523 13.88 -0.0111459 10.9393 0.0110955 7.99926C0.0416775 4.01388 3.0825 0.624835 7.04843 0.134828C7.683 0.0562878 8.32522 0.011805 8.96467 0.0104149C14.2769 0.00137928 19.5891 -0.00696126 24.9014 0.0104149C28.4725 0.0229257 31.5557 2.12544 32.7151 5.39841C33.0299 6.28598 33.2099 7.26877 33.2176 8.20986C33.2634 13.8675 33.2419 19.5266 33.2405 25.1843C33.2391 30.1219 29.7048 33.6506 24.7582 33.6527C19.2729 33.6548 13.7876 33.6527 8.30229 33.6541C4.15148 33.6541 0.92925 31.0344 0.105622 26.9657C0.0138757 26.5111 0.00970541 26.0336 0.00831532 25.5665C-2.52172e-05 22.6508 0.00414505 19.7351 0.00414505 16.8194H0.00692523V16.8201ZM2.80448 16.8701H2.81074C2.81074 19.8345 2.78155 22.7989 2.81908 25.7625C2.85383 28.5121 5.13636 30.8106 7.88735 30.8259C13.6673 30.8593 19.448 30.8628 25.228 30.8245C28.1382 30.8058 30.4214 28.4016 30.4228 25.4762C30.4256 19.7949 30.4242 14.1129 30.4228 8.43158C30.4228 5.17877 28.1792 2.874 24.9153 2.8594C19.3577 2.83369 13.7994 2.83647 8.24182 2.8601C5.07797 2.874 2.81282 5.18781 2.80518 8.34748C2.79823 11.1881 2.80379 14.0288 2.80379 16.8694L2.80448 16.8701Z" fill="black"/>
<path d="M20.4126 27.0011C19.4132 27.1269 18.3935 27.1137 17.3836 27.1178C17.1126 27.1185 16.8422 27.1199 16.5711 27.1206H7.69678V23.1547C7.86915 23.1547 9.40798 23.1248 10.4081 22.0913L12.7407 19.6287L12.7623 19.6079L12.7887 19.5731C12.8422 19.5092 13.4587 18.8037 14.4116 18.8364H15.1657C15.4604 19.3326 16.0012 19.6649 16.6191 19.6649C17.5518 19.6649 18.3087 18.908 18.3087 17.9752C18.3087 17.0425 17.5525 16.2862 16.6191 16.2862C15.9998 16.2862 15.4583 16.6199 15.1643 17.1168H14.4568C12.756 17.0633 11.6745 18.2282 11.4737 18.4638L9.16819 20.8972C8.74769 21.3281 7.96089 21.4303 7.69678 21.4331V13.3052H12.0839C12.3786 13.8015 12.9193 14.1337 13.5379 14.1337C14.4714 14.1337 15.2276 13.3775 15.2276 12.444C15.2276 11.5106 14.4714 10.7544 13.5379 10.7544C12.9193 10.7544 12.3786 11.0873 12.0839 11.5836H7.69678V6.53337H9.79025C12.7525 6.557 15.7155 6.53059 18.6771 6.5438C21.2335 6.55492 23.0455 7.84075 24.1534 10.0489C25.1994 12.1354 24.854 14.1525 23.4402 15.9943C23.3388 16.1264 23.2526 16.271 23.1414 16.4371C24.1833 17.3038 24.9971 18.3074 25.3509 19.6204C26.2677 23.0205 23.9212 26.5583 20.4126 26.9997V27.0011Z" fill="black"/>
<path d="M51.6392 18.6237C52.3808 19.555 52.7513 20.6101 52.7513 21.7889C52.7513 22.7967 52.4899 23.7044 51.9673 24.5121C51.4439 25.3204 50.6884 25.9571 49.7007 26.4228C48.7124 26.8891 47.5621 27.1213 46.2505 27.1213H38.3242V7.30415H45.8801C47.2298 7.30415 48.3892 7.53212 49.3588 7.98807C50.3283 8.44402 51.0595 9.05705 51.5544 9.82716C52.0486 10.5973 52.296 11.457 52.296 12.4079C52.296 13.5484 51.9916 14.4993 51.3834 15.2589C50.7746 16.0193 49.9579 16.5802 48.9313 16.941C49.9954 17.1314 50.899 17.6923 51.6399 18.623L51.6392 18.6237ZM41.5743 15.6301H45.5944C46.6585 15.6301 47.4905 15.3875 48.0889 14.9031C48.688 14.4186 48.9869 13.7201 48.9869 12.8075C48.9869 11.8949 48.6873 11.2159 48.0889 10.712C47.4905 10.2087 46.6585 9.95644 45.5944 9.95644H41.5743V15.6308V15.6301ZM48.5601 23.6704C49.1878 23.1387 49.5012 22.3971 49.5012 21.4462C49.5012 20.4954 49.1683 19.7072 48.5032 19.1366C47.8373 18.566 46.9539 18.281 45.8516 18.281H41.5749V24.4683H45.9655C47.0679 24.4683 47.9332 24.2021 48.5601 23.6697V23.6704Z" fill="black"/>
<path d="M58.8523 6.0211V27.1206H55.6016V6.0211H58.8523Z" fill="black"/>
<path d="M62.345 15.0025C63.0011 13.7861 63.8943 12.8402 65.0251 12.1653C66.156 11.4911 67.4056 11.1533 68.7749 11.1533C70.01 11.1533 71.0887 11.3959 72.011 11.8803C72.9327 12.3648 73.6694 12.9688 74.2206 13.6909V11.4098H77.4998V27.1206H74.2206V24.7825C73.6687 25.5241 72.918 26.142 71.9679 26.6361C71.0171 27.1303 69.9335 27.3778 68.7172 27.3778C67.3674 27.3778 66.1316 27.0309 65.0105 26.3373C63.8887 25.6436 63.0004 24.674 62.3443 23.4292C61.6889 22.1844 61.3608 20.7727 61.3608 19.195C61.3608 17.6172 61.6889 16.2202 62.3443 15.0039L62.345 15.0025ZM73.5505 16.428C73.1036 15.6294 72.5191 15.0212 71.7969 14.6035C71.0741 14.1858 70.295 13.9766 69.4588 13.9766C68.6227 13.9766 67.8428 14.1809 67.1207 14.5896C66.3978 14.9983 65.8133 15.5974 65.3671 16.3856C64.9202 17.1745 64.6971 18.1107 64.6971 19.1943C64.6971 20.2779 64.9202 21.2287 65.3671 22.0454C65.8133 22.8627 66.4027 23.4855 67.1346 23.913C67.8658 24.3404 68.6407 24.5545 69.4581 24.5545C70.2755 24.5545 71.0734 24.3453 71.7962 23.9269C72.5184 23.5091 73.1029 22.8961 73.5498 22.0878C73.9961 21.2801 74.2199 20.3342 74.2199 19.2506C74.2199 18.167 73.9961 17.2259 73.5498 16.428H73.5505Z" fill="black"/>
<path d="M80.9925 14.9886C81.6486 13.7625 82.5556 12.8173 83.7157 12.1514C84.875 11.4862 86.2053 11.1533 87.7073 11.1533C89.6076 11.1533 91.1812 11.6051 92.426 12.508C93.6708 13.4108 94.5118 14.6987 94.949 16.3717H91.4418C91.1568 15.5926 90.7002 14.9844 90.0733 14.5472C89.4456 14.11 88.6567 13.8911 87.7066 13.8911C86.3756 13.8911 85.3164 14.3616 84.5275 15.3027C83.7386 16.2438 83.3445 17.5602 83.3445 19.252C83.3445 20.9437 83.7386 22.265 84.5275 23.2151C85.3164 24.1659 86.3756 24.6407 87.7066 24.6407C89.5888 24.6407 90.8329 23.8136 91.4418 22.16H94.949C94.493 23.7566 93.6374 25.0257 92.3829 25.9668C91.1283 26.9079 89.5693 27.3784 87.7066 27.3784C86.2046 27.3784 84.8743 27.0414 83.715 26.3665C82.5556 25.6923 81.6479 24.7414 80.9918 23.5154C80.3357 22.2893 80.0083 20.8687 80.0083 19.2527C80.0083 17.6367 80.3364 16.216 80.9918 14.99L80.9925 14.9886Z" fill="black"/>
<path d="M103.731 19.2791L110.973 27.1199H106.583L100.766 20.3627V27.1199H97.5151V6.0211H100.766V18.2817L106.468 11.4098H110.973L103.731 19.2791Z" fill="black"/>
<path d="M122.605 7.30415V27.1206H119.354V7.30415H122.605Z" fill="black"/>
<path d="M139 7.30415V9.95575H133.725V27.1206H130.475V9.95575H125.171V7.30415H139Z" fill="black"/>
</g>
<defs>
<clipPath id="clip0_1_1328">
<rect width="139" height="33.6548" fill="white"/>
</clipPath>
</defs>
</svg>
